<?xml version="1.0" encoding="UTF-8"?>
<svg xmlns="http://www.w3.org/2000/svg" width="1600" height="1600" viewBox="0 0 1600 1600" role="img" aria-label="Minimal black and white personal brand logo with a stylized capital R">
  <rect width="1600" height="1600" fill="#000000"/>
  <path d="M 138.29 473.23 L 125.77 495.37 L 120 518.47 L 120.96 541.57 L 125.77 558.9 L 136.36 578.15 L 154.65 596.43 L 169.09 605.1 L 186.41 610.87 L 194.11 611.83 L 197 613.76 L 183.52 663.81 L 174.86 710.01 L 170.05 753.32 L 168.12 797.59 L 169.09 836.09 L 172.94 877.48 L 178.71 913.09 L 191.22 968.92 L 204.7 1010.3 L 217.21 1043.03 L 239.35 1090.19 L 262.45 1130.62 L 287.47 1168.15 L 313.46 1201.84 L 351 1243.23 L 375.06 1266.33 L 383.72 1205.69 L 394.31 1146.02 L 456.87 826.47 L 471.31 743.69 L 479.01 709.04 L 484.78 670.54 L 508.85 540.61 L 514.62 494.41 L 482.86 507.88 L 402.01 536.76 L 320.2 561.78 L 222.02 583.92 L 197 584.88 L 184.49 581.03 L 171.97 574.3 L 162.35 565.63 L 151.76 549.27 L 147.91 534.83 L 147.91 517.51 L 150.8 506.92 L 160.42 490.56 L 171.97 479.97 L 186.41 472.27 L 245.12 460.72 L 333.67 435.7 L 414.52 407.78 L 517.51 369.29 L 592.58 344.26 L 678.24 321.16 L 734.07 309.61 L 787.01 300.95 L 846.68 294.21 L 908.28 291.32 L 951.59 292.29 L 1000.68 297.1 L 1040.14 304.8 L 1089.23 319.24 L 1137.35 341.37 L 1161.42 356.77 L 1186.44 376.99 L 1213.39 407.78 L 1231.68 438.58 L 1242.26 466.5 L 1249.96 505 L 1250.93 537.72 L 1247.08 568.52 L 1235.53 609.91 L 1219.16 644.56 L 1193.18 684.02 L 1172.97 708.08 L 1137.35 743.69 L 1097.89 776.42 L 1043.03 814.92 L 985.28 848.61 L 956.4 862.08 L 1207.62 1140.24 L 1335.63 1289.43 L 1342.36 1302.9 L 1345.25 1314.45 L 1345.25 1333.7 L 1341.4 1347.18 L 1335.63 1357.76 L 1328.89 1365.46 L 1316.38 1375.09 L 1299.05 1381.83 L 1275.95 1381.83 L 1264.4 1377.98 L 1254.78 1372.2 L 1241.3 1358.73 L 1152.75 1253.81 L 1004.53 1085.38 L 932.34 1006.45 L 839.94 909.24 L 785.08 924.64 L 746.58 932.34 L 696.53 939.08 L 660.92 941 L 638.78 938.12 L 620.5 930.42 L 606.06 917.91 L 599.32 906.36 L 594.51 889.99 L 595.47 869.78 L 605.1 848.61 L 614.72 838.02 L 624.35 831.28 L 637.82 825.51 L 648.41 823.58 L 682.09 823.58 L 722.52 820.69 L 787.97 809.14 L 843.79 792.78 L 901.54 768.72 L 956.4 738.88 L 986.24 719.63 L 1012.23 700.38 L 1045.92 672.47 L 1080.57 637.82 L 1101.74 611.83 L 1109.44 600.28 L 1121.95 576.22 L 1129.65 554.08 L 1132.54 536.76 L 1132.54 520.4 L 1129.65 504.03 L 1121.95 485.75 L 1113.29 473.23 L 1094.04 453.98 L 1077.68 443.4 L 1051.69 430.88 L 1025.7 422.22 L 998.75 415.48 L 976.62 411.63 L 944.85 408.75 L 866.89 409.71 L 791.82 418.37 L 719.63 431.85 L 634.93 453.98 L 634.93 487.67 L 628.2 536.76 L 610.87 626.27 L 590.66 715.78 L 553.12 901.54 L 536.76 997.79 L 528.1 1040.14 L 513.66 1137.35 L 508.85 1161.42 L 501.15 1216.28 L 492.48 1297.13 L 485.75 1330.81 L 479.97 1345.25 L 526.17 1371.24 L 561.78 1387.6 L 593.55 1400.11 L 647.45 1417.44 L 714.82 1431.88 L 761.98 1437.65 L 803.37 1440.54 L 848.61 1440.54 L 907.32 1435.73 L 955.44 1428.03 L 996.83 1418.4 L 1056.5 1399.15 L 1101.74 1379.9 L 1129.65 1366.43 L 1183.55 1334.66 L 1188.37 1338.51 L 1223.01 1380.86 L 1232.64 1390.49 L 1248.04 1401.08 L 1270.18 1408.78 L 1299.05 1409.74 L 1315.41 1405.89 L 1328.89 1400.11 L 1339.48 1393.38 L 1355.84 1377.01 L 1368.35 1354.88 L 1372.2 1341.4 L 1373.16 1311.56 L 1371.24 1300.98 L 1367.39 1289.43 L 1359.69 1274.99 L 1319.26 1226.86 L 1316.38 1221.09 L 1345.25 1186.44 L 1364.5 1160.45 L 1392.41 1117.14 L 1417.44 1070.94 L 1440.54 1016.08 L 1457.86 961.22 L 1468.45 915.02 L 1477.11 851.49 L 1479.04 784.12 L 1473.26 717.71 L 1462.68 659 L 1454.01 626.27 L 1440.54 584.88 L 1419.36 533.87 L 1393.38 483.82 L 1361.61 434.73 L 1342.36 408.75 L 1316.38 377.95 L 1273.06 333.67 L 1246.11 309.61 L 1219.16 288.44 L 1178.74 260.52 L 1154.68 246.09 L 1102.7 219.14 L 1038.22 193.15 L 967.95 173.9 L 940.04 168.12 L 898.66 162.35 L 828.39 158.5 L 761.98 161.39 L 710.01 168.12 L 653.22 180.64 L 602.21 196.04 L 553.12 215.29 L 503.07 240.31 L 446.28 275.92 L 398.16 312.5 L 372.17 335.6 L 339.45 368.32 L 315.39 395.27 L 298.06 417.41 L 248.97 430.88 L 173.9 447.25 L 154.65 457.83 Z" fill="#FFFFFF"/>
</svg>
